<svg xmlns="http://www.w3.org/2000/svg" version="1.1" xmlns:xlink="http://www.w3.org/1999/xlink" xmlns:svgjs="http://svgjs.dev/svgjs" width="1000" height="625" viewBox="0 0 1000 625"><g transform="matrix(1,0,0,1,0,0)"><svg viewBox="0 0 512 320" data-background-color="#ffffff" preserveAspectRatio="xMidYMid meet" height="625" width="1000" xmlns="http://www.w3.org/2000/svg" xmlns:xlink="http://www.w3.org/1999/xlink"><g id="tight-bounds" transform="matrix(1,0,0,1,0,0)"><svg viewBox="0 0 512 320" height="320" width="512"><g><svg></svg></g><g><svg viewBox="0 0 512 320" height="320" width="512"><g><path xmlns="http://www.w3.org/2000/svg" d="M96 160c0-88.366 71.634-160 160-160 88.366 0 160 71.634 160 160 0 88.366-71.634 160-160 160-88.366 0-160-71.634-160-160z" fill="#ffffff" fill-rule="nonzero" stroke="none" stroke-width="1" stroke-linecap="butt" stroke-linejoin="miter" stroke-miterlimit="10" stroke-dasharray="" stroke-dashoffset="0" font-family="none" font-weight="none" font-size="none" text-anchor="none" style="mix-blend-mode: normal" data-fill-palette-color="tertiary"></path></g><g transform="matrix(1,0,0,1,153.6,83.08070829450138)"><svg viewBox="0 0 204.8 153.83858341099724" height="153.83858341099724" width="204.8"><g><svg viewBox="0 0 204.8 153.83858341099724" height="153.83858341099724" width="204.8"><g><svg viewBox="0 0 204.8 153.83858341099724" height="153.83858341099724" width="204.8"><g><svg viewBox="0 0 204.8 153.83858341099724" height="153.83858341099724" width="204.8"><g id="textblocktransform"><svg viewBox="0 0 204.8 153.83858341099724" height="153.83858341099724" width="204.8" id="textblock"><g><svg viewBox="0 0 204.8 153.83858341099724" height="153.83858341099724" width="204.8"><g transform="matrix(1,0,0,1,0,0)"><svg width="204.8" viewBox="-1.100000023841858 -35.95000076293945 53.64999771118164 40.29999923706055" height="153.83858341099724" data-palette-color="#ffffff"><path d="M4.75 4.3L4.75 4.3Q3.5 4.3 2.13 3.83 0.75 3.35-0.18 1.93-1.1 0.5-1.1-2.35L-1.1-2.35Q-1.1-4.35-0.65-6.3-0.2-8.25 0.7-9.58 1.6-10.9 2.9-10.9L2.9-10.9Q3.55-10.9 4.65-10.4L4.65-10.4Q3.7-8.05 3.25-6.03 2.8-4 2.8-2.35L2.8-2.35Q2.8-0.3 3.63 0.9 4.45 2.1 5.9 2.1L5.9 2.1Q7.15 2.1 8.18 1 9.2-0.1 10.2-2.95L10.2-2.95Q11-5.1 11.85-8.15 12.7-11.2 13.55-14.68 14.4-18.15 15.18-21.58 15.95-25 16.57-27.95 17.2-30.9 17.55-32.9L17.55-32.9Q15.1-32.9 13.33-32.77 11.55-32.65 10.1-32.43 8.65-32.2 7.05-31.8L7.05-31.8Q7.35-33.95 9.43-34.93 11.5-35.9 15.75-35.9L15.75-35.9Q17.8-35.9 20-35.7 22.2-35.5 24.05-35.25 25.9-35 26.9-34.8L26.9-34.8Q26.2-33.6 24.83-33.27 23.45-32.95 22.6-32.95L22.6-32.95Q21.7-32.95 20.85-32.93 20-32.9 19.45-32.9L19.45-32.9Q19.9-32.5 20.08-31.9 20.25-31.3 20.25-30.85L20.25-30.85Q20.25-30.2 19.9-28 19.55-25.8 18.93-22.68 18.3-19.55 17.43-16.03 16.55-12.5 15.53-9.13 14.5-5.75 13.3-3.1L13.3-3.1Q11.95-0.2 10.58 1.43 9.2 3.05 7.75 3.68 6.3 4.3 4.75 4.3ZM32.65 4.35L32.65 4.35Q29.8 4.35 27.47 2.83 25.15 1.3 23.8-1.5 22.45-4.3 22.45-8.15L22.45-8.15Q22.45-12 23.67-15.93 24.9-19.85 27-23.45 29.1-27.05 31.85-29.88 34.6-32.7 37.7-34.33 40.8-35.95 43.95-35.95L43.95-35.95Q44.6-35.95 45.5-35.77 46.4-35.6 47.25-34.8L47.25-34.8Q46.9-34.85 46.62-34.88 46.35-34.9 46.05-34.9L46.05-34.9Q43.45-34.9 40.8-33.23 38.15-31.55 35.75-28.75 33.35-25.95 31.47-22.43 29.6-18.9 28.5-15.1 27.4-11.3 27.4-7.7L27.4-7.7Q27.4-5.1 28.1-2.83 28.8-0.55 30.32 0.83 31.85 2.2 34.35 2.2L34.35 2.2Q37.1 2.2 39.52 0.53 41.95-1.15 43.9-4 45.85-6.85 47.25-10.33 48.65-13.8 49.42-17.53 50.2-21.25 50.2-24.6L50.2-24.6Q50.2-26.05 50-27.7 49.8-29.35 49.3-30.53 48.8-31.7 47.95-31.7L47.95-31.7Q47.05-31.7 46.05-30.63 45.05-29.55 44.07-27.88 43.1-26.2 42.37-24.38 41.65-22.55 41.35-21.1L41.35-21.1Q39.8-21.45 39.12-22.18 38.45-22.9 38.45-23.85L38.45-23.85Q38.45-25.2 39.4-26.85 40.35-28.5 41.82-30.03 43.3-31.55 44.95-32.55 46.6-33.55 47.95-33.55L47.95-33.55Q49.4-33.55 50.3-32.5 51.2-31.45 51.67-29.83 52.15-28.2 52.35-26.38 52.55-24.55 52.55-22.95L52.55-22.95Q52.55-17.75 51.3-13.43 50.05-9.1 47.95-5.8 45.85-2.5 43.25-0.23 40.65 2.05 37.9 3.2 35.15 4.35 32.65 4.35Z" opacity="1" transform="matrix(1,0,0,1,0,0)" fill="#000000" class="undefined-text-0" data-fill-palette-color="quaternary" id="text-0"></path></svg></g></svg></g></svg></g></svg></g></svg></g></svg></g></svg></g></svg></g><defs></defs></svg><rect width="512" height="320" fill="none" stroke="none" visibility="hidden"></rect></g></svg></g></svg>